<svg xmlns="http://www.w3.org/2000/svg" version="1.1" xmlns:xlink="http://www.w3.org/1999/xlink" xmlns:svgjs="http://svgjs.dev/svgjs" width="2000" height="1500" viewBox="0 0 2000 1500"><rect width="2000" height="1500" fill="#000000"></rect><g transform="matrix(0.75,0,0,0.75,249.090909090909,282.7536437246963)"><svg viewBox="0 0 396 247" data-background-color="#632240" preserveAspectRatio="xMidYMid meet" height="1247" width="2000" xmlns="http://www.w3.org/2000/svg" xmlns:xlink="http://www.w3.org/1999/xlink"><g id="tight-bounds" transform="matrix(1,0,0,1,0.2400000000000091,-0.09999999999999432)"><svg viewBox="0 0 395.52 247.2" height="247.2" width="395.52"><g><svg></svg></g><g><svg viewBox="0 0 395.52 247.2" height="247.2" width="395.52"><g transform="matrix(1,0,0,1,75.54432000000001,92.87171391488667)"><svg viewBox="0 0 244.43135999999996 61.456572170226636" height="61.456572170226636" width="244.43135999999996"><g><svg viewBox="0 0 244.43135999999996 61.456572170226636" height="61.456572170226636" width="244.43135999999996"><g><svg viewBox="0 0 244.43135999999996 61.456572170226636" height="61.456572170226636" width="244.43135999999996"><g><svg viewBox="0 0 244.43135999999996 61.456572170226636" height="61.456572170226636" width="244.43135999999996"><g id="textblocktransform"><svg viewBox="0 0 244.43135999999996 61.456572170226636" height="61.456572170226636" width="244.43135999999996" id="textblock"><g><svg viewBox="0 0 244.43135999999996 61.456572170226636" height="61.456572170226636" width="244.43135999999996"><g transform="matrix(1,0,0,1,0,0)"><svg width="244.43135999999996" viewBox="157.32 -34.65 306.65000000000003 73.75" height="61.456572170226636" data-palette-color="#fed8e5"><svg></svg><svg></svg><g class="wordmark-text-0" data-fill-palette-color="primary" id="text-0"><path d="M274.52 0h-18.3l0.6-12.15-0.6-22.35h18.75l-0.55 5.35h-11.25l-0.3 8.85h10l-0.55 5.3h-9.65l-0.05 2 0.35 7.7h12.1zM291.07 0.55v0c-2.367 0-5.783-0.183-10.25-0.55v0l0.6-12.15-0.6-22.35h13.35c4.5 0 8.017 1.35 10.55 4.05 2.533 2.7 3.8 6.45 3.8 11.25v0c0 6.067-1.567 10.873-4.7 14.42-3.133 3.553-7.383 5.33-12.75 5.33zM292.37-29.1v0c-2.2 0-3.75 0.017-4.65 0.05v0l-0.5 16.05 0.35 8.1c2.8 0.2 4.683 0.3 5.65 0.3v0c2.633 0 4.71-1.067 6.23-3.2 1.513-2.133 2.27-5.233 2.27-9.3 0-4.067-0.74-7.083-2.22-9.05-1.487-1.967-3.863-2.95-7.13-2.95zM332.32 0h-18.3l0.6-12.15-0.6-22.35h18.75l-0.55 5.35h-11.25l-0.3 8.85h10l-0.55 5.3h-9.65l-0.05 2 0.35 7.7h12.1zM358.97-33.85l6.1-0.75-0.65 21.6 0.55 11.9-5.9 1.25-14.9-24.1v10.95l0.7 13h-6.25l0.6-12.15-0.6-22.2 6-0.3 14.85 24.45z" fill="#ffffff" fill-rule="nonzero" stroke="none" stroke-width="1" stroke-linecap="butt" stroke-linejoin="miter" stroke-miterlimit="10" stroke-dasharray="" stroke-dashoffset="0" font-family="none" font-weight="none" font-size="none" text-anchor="none" style="mix-blend-mode: normal" data-fill-palette-color="primary" opacity="1"></path><path d="M157.32 5.05l7.1-1.25-0.7 21.75 0.6 13h-7l0.6-12.15zM169.07 34l3.9-5.4c2.833 2.833 5.667 4.25 8.5 4.25v0c1.467 0 2.643-0.343 3.53-1.03 0.88-0.68 1.32-1.563 1.32-2.65 0-1.08-0.533-1.997-1.6-2.75-1.067-0.747-2.357-1.403-3.87-1.97-1.52-0.567-3.03-1.21-4.53-1.93-1.5-0.713-2.783-1.737-3.85-3.07-1.067-1.333-1.6-2.95-1.6-4.85v0c0-3 1.25-5.593 3.75-7.78 2.5-2.18 5.467-3.27 8.9-3.27v0c1.567 0 3.083 0.167 4.55 0.5 1.467 0.333 2.883 0.817 4.25 1.45v0l-3.4 7.3c-0.933-0.733-2.207-1.41-3.82-2.03-1.62-0.613-3.037-0.92-4.25-0.92-1.22 0-2.203 0.29-2.95 0.87-0.753 0.587-1.13 1.363-1.13 2.33 0 0.967 0.533 1.823 1.6 2.57 1.067 0.753 2.36 1.413 3.88 1.98 1.513 0.567 3.03 1.193 4.55 1.88 1.513 0.68 2.803 1.687 3.87 3.02 1.067 1.333 1.6 2.95 1.6 4.85v0c0 3.133-1.25 5.873-3.75 8.22-2.5 2.353-5.417 3.53-8.75 3.53v0c-2.5 0-4.717-0.6-6.65-1.8v0c-1.7-1.033-2.9-1.95-3.6-2.75v0zM205.77 3.7l6.3 19.25h0.5l7.3-19 6.9 0.2 0.2 21.5 0.95 12.9h-6.75l0.25-13-0.55-13.15-6 16.55-6.15 0.3-5.6-16.85-0.45 13.15 0.35 13h-6.2l0.7-12.15 0.3-21.45zM262.32 37.7l-7.2 1.1-2.45-9.75h-11.95l-2.65 9.5-6.4-0.5 4.4-12.15 6.7-21.5 8.95-0.65 6.45 21.4zM251.17 23.75l-3.95-13.5h-0.65l-4.3 13.5zM286.47 5.05l7.1-1.25-0.7 21.75 0.6 13h-7l0.6-12.15-0.1-2.65h-13.45l-0.05 1.8 0.6 13h-7l0.6-12.15-0.6-21.35 7.1-1.25-0.5 14.65h13.15zM310.42 26.75l-11.8 2.1-0.4-4.55 11.8-2.1zM323.27 3.7l6.3 19.25h0.5l7.3-19 6.9 0.2 0.2 21.5 0.95 12.9h-6.75l0.25-13-0.55-13.15-6 16.55-6.15 0.3-5.6-16.85-0.45 13.15 0.35 13h-6.2l0.7-12.15 0.3-21.45zM366.42 3.55v0c3.933 0 7.173 1.5 9.72 4.5 2.553 3 3.83 6.817 3.83 11.45v0c0 5.867-1.517 10.6-4.55 14.2-3.033 3.6-7.017 5.4-11.95 5.4v0c-3.833 0-7.05-1.543-9.65-4.63-2.6-3.08-3.9-6.887-3.9-11.42v0c0-5.667 1.55-10.333 4.65-14 3.1-3.667 7.05-5.5 11.85-5.5zM373.17 22.3v0c0-8.433-2.767-12.65-8.3-12.65v0c-2.533 0-4.527 0.94-5.98 2.82-1.447 1.887-2.17 4.703-2.17 8.45 0 3.753 0.773 6.837 2.32 9.25 1.553 2.42 3.607 3.63 6.16 3.63 2.547 0 4.513-1.027 5.9-3.08 1.38-2.047 2.07-4.853 2.07-8.42zM382.12 34l3.9-5.4c2.833 2.833 5.667 4.25 8.5 4.25v0c1.467 0 2.64-0.343 3.52-1.03 0.887-0.68 1.33-1.563 1.33-2.65 0-1.08-0.533-1.997-1.6-2.75-1.067-0.747-2.357-1.403-3.87-1.97-1.52-0.567-3.03-1.21-4.53-1.93-1.5-0.713-2.783-1.737-3.85-3.07-1.067-1.333-1.6-2.95-1.6-4.85v0c0-3 1.25-5.593 3.75-7.78 2.5-2.18 5.467-3.27 8.9-3.27v0c1.567 0 3.083 0.167 4.55 0.5 1.467 0.333 2.883 0.817 4.25 1.45v0l-3.4 7.3c-0.933-0.733-2.207-1.41-3.82-2.03-1.62-0.613-3.037-0.92-4.25-0.92-1.22 0-2.203 0.29-2.95 0.87-0.753 0.587-1.13 1.363-1.13 2.33 0 0.967 0.533 1.823 1.6 2.57 1.067 0.753 2.357 1.413 3.87 1.98 1.52 0.567 3.04 1.193 4.56 1.88 1.513 0.68 2.803 1.687 3.87 3.02 1.067 1.333 1.6 2.95 1.6 4.85v0c0 3.133-1.25 5.873-3.75 8.22-2.5 2.353-5.417 3.53-8.75 3.53v0c-2.5 0-4.717-0.6-6.65-1.8v0c-1.7-1.033-2.9-1.95-3.6-2.75v0zM430.02 5.05l7.1-1.25-0.7 21.75 0.6 13h-7l0.6-12.15-0.1-2.65h-13.45l-0.05 1.8 0.6 13h-7l0.6-12.15-0.6-21.35 7.1-1.25-0.5 14.65h13.15zM463.42 38.55h-18.3l0.6-12.15-0.6-22.35h18.75l-0.55 5.35h-11.25l-0.3 8.85h10l-0.55 5.3h-9.65l-0.05 2 0.35 7.7h12.1z" fill="#ffffff" fill-rule="nonzero" stroke="none" stroke-width="1" stroke-linecap="butt" stroke-linejoin="miter" stroke-miterlimit="10" stroke-dasharray="" stroke-dashoffset="0" font-family="none" font-weight="none" font-size="none" text-anchor="none" style="mix-blend-mode: normal" data-fill-palette-color="primary" opacity="1"></path></g></svg></g></svg></g></svg></g></svg></g><g></g></svg></g></svg></g></svg></g><g><path d="M81.413 86.182A122.216 122.216 0 0 1 314.107 86.182L311.551 86.182A119.66 119.66 0 0 0 83.969 86.182L81.413 86.182M81.413 161.018A122.216 122.216 0 0 0 314.107 161.018L311.551 161.018A119.66 119.66 0 0 1 83.969 161.018L81.413 161.018" fill="#ffffff" stroke="transparent" data-fill-palette-color="tertiary"></path></g></svg></g><defs></defs></svg><rect width="395.52" height="247.2" fill="none" stroke="none" visibility="hidden"></rect></g></svg></g></svg>